<?xml version="1.0" standalone="no"?>
<svg xmlns:xlink="http://www.w3.org/1999/xlink" id="wave" style="transform:rotate(0deg); transition: 0.3s" viewBox="0 0 1440 230" version="1.1" xmlns="http://www.w3.org/2000/svg"><defs><linearGradient id="sw-gradient-0" x1="0" x2="0" y1="1" y2="0"><stop stop-color="rgba(255, 255, 255, 1)" offset="0%"/><stop stop-color="rgba(255, 255, 255, 0)" offset="100%"/></linearGradient></defs><path style="transform:translate(0, 0px); opacity:1" fill="url(#sw-gradient-0)" d="M0,46L48,61.3C96,77,192,107,288,111.2C384,115,480,92,576,95.8C672,100,768,130,864,141.8C960,153,1056,146,1152,122.7C1248,100,1344,61,1440,42.2C1536,23,1632,23,1728,30.7C1824,38,1920,54,2016,72.8C2112,92,2208,115,2304,103.5C2400,92,2496,46,2592,49.8C2688,54,2784,107,2880,111.2C2976,115,3072,69,3168,69C3264,69,3360,115,3456,126.5C3552,138,3648,115,3744,95.8C3840,77,3936,61,4032,49.8C4128,38,4224,31,4320,42.2C4416,54,4512,84,4608,115C4704,146,4800,176,4896,168.7C4992,161,5088,115,5184,103.5C5280,92,5376,115,5472,126.5C5568,138,5664,138,5760,126.5C5856,115,5952,92,6048,88.2C6144,84,6240,100,6336,118.8C6432,138,6528,161,6624,145.7C6720,130,6816,77,6864,49.8L6912,23L6912,230L6864,230C6816,230,6720,230,6624,230C6528,230,6432,230,6336,230C6240,230,6144,230,6048,230C5952,230,5856,230,5760,230C5664,230,5568,230,5472,230C5376,230,5280,230,5184,230C5088,230,4992,230,4896,230C4800,230,4704,230,4608,230C4512,230,4416,230,4320,230C4224,230,4128,230,4032,230C3936,230,3840,230,3744,230C3648,230,3552,230,3456,230C3360,230,3264,230,3168,230C3072,230,2976,230,2880,230C2784,230,2688,230,2592,230C2496,230,2400,230,2304,230C2208,230,2112,230,2016,230C1920,230,1824,230,1728,230C1632,230,1536,230,1440,230C1344,230,1248,230,1152,230C1056,230,960,230,864,230C768,230,672,230,576,230C480,230,384,230,288,230C192,230,96,230,48,230L0,230Z"/></svg>