<!DOCTYPE svg PUBLIC "-//W3C//DTD SVG 1.1//EN" "http://www.w3.org/Graphics/SVG/1.1/DTD/svg11.dtd">
<!-- Uploaded to: SVG Repo, www.svgrepo.com, Transformed by: SVG Repo Mixer Tools -->
<svg version="1.1" id="_x32_" xmlns="http://www.w3.org/2000/svg" xmlns:xlink="http://www.w3.org/1999/xlink" viewBox="-25.6 -25.6 563.20 563.20" xml:space="preserve" width="90px" height="90px" fill="#000" stroke="#000" stroke-width="11.776">
<g id="SVGRepo_bgCarrier" stroke-width="0"/>
<g id="SVGRepo_tracerCarrier" stroke-linecap="round" stroke-linejoin="round"/>
<g id="SVGRepo_iconCarrier"> <style type="text/css"> .st0{fill:#9accc9;} </style> <g> <path class="st0" d="M486.504,25.496H25.496C11.438,25.496,0,36.934,0,50.992v410.016c0,14.059,11.438,25.496,25.496,25.496 h461.008c14.058,0,25.496-11.437,25.496-25.496V50.992C512,36.934,500.562,25.496,486.504,25.496z M424.585,77.008 c15.806,0,28.618,12.813,28.618,28.618c0,15.806-12.812,28.618-28.618,28.618c-15.805,0-28.618-12.812-28.618-28.618 C395.968,89.821,408.78,77.008,424.585,77.008z M334.049,77.008c15.805,0,28.618,12.813,28.618,28.618 c0,15.806-12.813,28.618-28.618,28.618c-15.805,0-28.618-12.812-28.618-28.618C305.431,89.821,318.244,77.008,334.049,77.008z M243.512,77.008c15.806,0,28.618,12.813,28.618,28.618c0,15.806-12.812,28.618-28.618,28.618 c-15.805,0-28.618-12.812-28.618-28.618C214.894,89.821,227.707,77.008,243.512,77.008z M469.333,443.838H42.667V174.829h426.666 V443.838z"/> <rect x="87.415" y="219.756" class="st0" width="226.341" height="45.61"/> <rect x="87.415" y="311.333" class="st0" width="337.17" height="45.61"/> </g> </g>
</svg>